<mxfile host="app.diagrams.net" modified="2021-08-27T13:06:32.142Z" agent="5.0 (Macintosh; Intel Mac OS X 10_15_7) AppleWebKit/537.36 (KHTML, like Gecko) Chrome/92.0.4515.159 Safari/537.36 Edg/92.0.902.78" etag="i_ZVPBZmW-pWKKmqB9RZ" version="15.0.2" type="github">
  <diagram id="fTSLImChUxGJFFE6BYbX" name="Page-1">
    <mxGraphModel dx="1426" dy="680" grid="1" gridSize="10" guides="1" tooltips="1" connect="1" arrows="1" fold="1" page="1" pageScale="1" pageWidth="827" pageHeight="1169" math="0" shadow="0">
      <root>
        <mxCell id="0" />
        <mxCell id="1" parent="0" />
        <mxCell id="tXNZW25RtUIMrDaAepfb-3" value="" style="group" vertex="1" connectable="0" parent="1">
          <mxGeometry x="210" y="320" width="570" height="480" as="geometry" />
        </mxCell>
        <mxCell id="tXNZW25RtUIMrDaAepfb-1" value="&lt;p style=&quot;line-height: 100%&quot;&gt;&lt;br&gt;&lt;/p&gt;" style="rounded=1;whiteSpace=wrap;html=1;align=center;fillColor=#f5f5f5;strokeColor=#666666;fontColor=#333333;" vertex="1" parent="tXNZW25RtUIMrDaAepfb-3">
          <mxGeometry y="10" width="570" height="480" as="geometry" />
        </mxCell>
        <mxCell id="tXNZW25RtUIMrDaAepfb-2" value="&lt;span style=&quot;color: rgb(0 , 0 , 0) ; font-family: &amp;#34;helvetica&amp;#34; ; font-size: 12px ; font-style: normal ; font-weight: 400 ; letter-spacing: normal ; text-align: center ; text-indent: 0px ; text-transform: none ; word-spacing: 0px ; background-color: rgb(248 , 249 , 250) ; display: inline ; float: none&quot;&gt;Kubernetes Cluster&lt;/span&gt;" style="text;html=1;strokeColor=none;fillColor=none;align=center;verticalAlign=middle;whiteSpace=wrap;rounded=0;" vertex="1" parent="tXNZW25RtUIMrDaAepfb-3">
          <mxGeometry x="190" y="20" width="160" height="20" as="geometry" />
        </mxCell>
        <mxCell id="tXNZW25RtUIMrDaAepfb-140" style="edgeStyle=orthogonalEdgeStyle;rounded=0;orthogonalLoop=1;jettySize=auto;html=1;exitX=0.5;exitY=0;exitDx=0;exitDy=0;entryX=0.033;entryY=0.455;entryDx=0;entryDy=0;entryPerimeter=0;strokeWidth=0.3;fillColor=#dae8fc;strokeColor=#6c8ebf;" edge="1" parent="tXNZW25RtUIMrDaAepfb-3" source="tXNZW25RtUIMrDaAepfb-5" target="tXNZW25RtUIMrDaAepfb-77">
          <mxGeometry relative="1" as="geometry" />
        </mxCell>
        <mxCell id="tXNZW25RtUIMrDaAepfb-149" style="edgeStyle=orthogonalEdgeStyle;rounded=0;orthogonalLoop=1;jettySize=auto;html=1;exitX=0.25;exitY=0;exitDx=0;exitDy=0;entryX=0.5;entryY=1;entryDx=0;entryDy=0;strokeWidth=0.3;" edge="1" parent="tXNZW25RtUIMrDaAepfb-3" source="tXNZW25RtUIMrDaAepfb-5" target="tXNZW25RtUIMrDaAepfb-148">
          <mxGeometry relative="1" as="geometry" />
        </mxCell>
        <mxCell id="tXNZW25RtUIMrDaAepfb-151" style="edgeStyle=orthogonalEdgeStyle;rounded=0;orthogonalLoop=1;jettySize=auto;html=1;exitX=0;exitY=0;exitDx=0;exitDy=0;strokeWidth=0.3;" edge="1" parent="tXNZW25RtUIMrDaAepfb-3" source="tXNZW25RtUIMrDaAepfb-5" target="tXNZW25RtUIMrDaAepfb-150">
          <mxGeometry relative="1" as="geometry" />
        </mxCell>
        <mxCell id="tXNZW25RtUIMrDaAepfb-5" value="Ingress" style="rounded=0;whiteSpace=wrap;html=1;" vertex="1" parent="tXNZW25RtUIMrDaAepfb-3">
          <mxGeometry x="60" y="130" width="50" height="100" as="geometry" />
        </mxCell>
        <mxCell id="tXNZW25RtUIMrDaAepfb-56" style="edgeStyle=orthogonalEdgeStyle;rounded=0;orthogonalLoop=1;jettySize=auto;html=1;exitX=1;exitY=0.5;exitDx=0;exitDy=0;entryX=0.25;entryY=0;entryDx=0;entryDy=0;" edge="1" parent="tXNZW25RtUIMrDaAepfb-3" source="tXNZW25RtUIMrDaAepfb-6" target="tXNZW25RtUIMrDaAepfb-47">
          <mxGeometry relative="1" as="geometry" />
        </mxCell>
        <mxCell id="tXNZW25RtUIMrDaAepfb-57" value="報價" style="edgeLabel;html=1;align=center;verticalAlign=middle;resizable=0;points=[];" vertex="1" connectable="0" parent="tXNZW25RtUIMrDaAepfb-56">
          <mxGeometry x="-0.3651" y="-2" relative="1" as="geometry">
            <mxPoint as="offset" />
          </mxGeometry>
        </mxCell>
        <mxCell id="tXNZW25RtUIMrDaAepfb-6" value="&lt;font style=&quot;font-size: 10px&quot;&gt;Ingress -websocket&lt;/font&gt;" style="rounded=0;whiteSpace=wrap;html=1;" vertex="1" parent="tXNZW25RtUIMrDaAepfb-3">
          <mxGeometry x="60" y="240" width="50" height="100" as="geometry" />
        </mxCell>
        <mxCell id="tXNZW25RtUIMrDaAepfb-26" value="source" style="rounded=1;whiteSpace=wrap;html=1;" vertex="1" parent="tXNZW25RtUIMrDaAepfb-3">
          <mxGeometry x="115" y="415" width="90" height="50" as="geometry" />
        </mxCell>
        <mxCell id="tXNZW25RtUIMrDaAepfb-69" style="edgeStyle=orthogonalEdgeStyle;rounded=0;orthogonalLoop=1;jettySize=auto;html=1;exitX=0.25;exitY=1;exitDx=0;exitDy=0;entryX=0.5;entryY=0;entryDx=0;entryDy=0;dashed=1;" edge="1" parent="tXNZW25RtUIMrDaAepfb-3" source="tXNZW25RtUIMrDaAepfb-47" target="tXNZW25RtUIMrDaAepfb-26">
          <mxGeometry relative="1" as="geometry" />
        </mxCell>
        <mxCell id="tXNZW25RtUIMrDaAepfb-111" style="edgeStyle=orthogonalEdgeStyle;rounded=0;orthogonalLoop=1;jettySize=auto;html=1;exitX=1;exitY=0.5;exitDx=0;exitDy=0;entryX=-0.044;entryY=0.284;entryDx=0;entryDy=0;entryPerimeter=0;" edge="1" parent="tXNZW25RtUIMrDaAepfb-3" source="tXNZW25RtUIMrDaAepfb-47" target="tXNZW25RtUIMrDaAepfb-108">
          <mxGeometry relative="1" as="geometry" />
        </mxCell>
        <mxCell id="tXNZW25RtUIMrDaAepfb-47" value="quote" style="rounded=1;whiteSpace=wrap;html=1;" vertex="1" parent="tXNZW25RtUIMrDaAepfb-3">
          <mxGeometry x="138" y="340" width="66" height="40" as="geometry" />
        </mxCell>
        <mxCell id="tXNZW25RtUIMrDaAepfb-110" style="edgeStyle=orthogonalEdgeStyle;rounded=0;orthogonalLoop=1;jettySize=auto;html=1;exitX=1;exitY=0.25;exitDx=0;exitDy=0;" edge="1" parent="tXNZW25RtUIMrDaAepfb-3" source="tXNZW25RtUIMrDaAepfb-58" target="tXNZW25RtUIMrDaAepfb-108">
          <mxGeometry relative="1" as="geometry" />
        </mxCell>
        <mxCell id="tXNZW25RtUIMrDaAepfb-147" style="edgeStyle=orthogonalEdgeStyle;rounded=0;orthogonalLoop=1;jettySize=auto;html=1;exitX=0;exitY=0.75;exitDx=0;exitDy=0;entryX=1;entryY=0.75;entryDx=0;entryDy=0;strokeWidth=0.3;dashed=1;" edge="1" parent="tXNZW25RtUIMrDaAepfb-3" source="tXNZW25RtUIMrDaAepfb-58" target="tXNZW25RtUIMrDaAepfb-26">
          <mxGeometry relative="1" as="geometry" />
        </mxCell>
        <mxCell id="tXNZW25RtUIMrDaAepfb-58" value="warehouse" style="rounded=1;whiteSpace=wrap;html=1;" vertex="1" parent="tXNZW25RtUIMrDaAepfb-3">
          <mxGeometry x="220" y="415" width="80" height="50" as="geometry" />
        </mxCell>
        <mxCell id="tXNZW25RtUIMrDaAepfb-60" value="廣播前端報價,提供毛毛蟲" style="text;html=1;strokeColor=none;fillColor=none;align=center;verticalAlign=middle;whiteSpace=wrap;rounded=0;" vertex="1" parent="tXNZW25RtUIMrDaAepfb-3">
          <mxGeometry x="39" y="350" width="92" height="20" as="geometry" />
        </mxCell>
        <mxCell id="tXNZW25RtUIMrDaAepfb-61" value="接外面的報價，轉成內部的格式" style="text;html=1;strokeColor=none;fillColor=none;align=center;verticalAlign=middle;whiteSpace=wrap;rounded=0;" vertex="1" parent="tXNZW25RtUIMrDaAepfb-3">
          <mxGeometry x="35" y="430" width="80" height="20" as="geometry" />
        </mxCell>
        <mxCell id="tXNZW25RtUIMrDaAepfb-73" value="member" style="rounded=1;whiteSpace=wrap;html=1;" vertex="1" parent="tXNZW25RtUIMrDaAepfb-3">
          <mxGeometry x="247.75" y="70" width="74.5" height="30" as="geometry" />
        </mxCell>
        <mxCell id="tXNZW25RtUIMrDaAepfb-75" value="管理會員資料" style="text;html=1;strokeColor=none;fillColor=none;align=center;verticalAlign=middle;whiteSpace=wrap;rounded=0;" vertex="1" parent="tXNZW25RtUIMrDaAepfb-3">
          <mxGeometry x="330" y="75" width="50" height="20" as="geometry" />
        </mxCell>
        <mxCell id="tXNZW25RtUIMrDaAepfb-78" style="rounded=0;orthogonalLoop=1;jettySize=auto;html=1;exitX=1;exitY=0.25;exitDx=0;exitDy=0;entryX=0;entryY=0.5;entryDx=0;entryDy=0;dashed=1;" edge="1" parent="tXNZW25RtUIMrDaAepfb-3" source="tXNZW25RtUIMrDaAepfb-77" target="tXNZW25RtUIMrDaAepfb-73">
          <mxGeometry relative="1" as="geometry" />
        </mxCell>
        <mxCell id="tXNZW25RtUIMrDaAepfb-102" style="rounded=0;orthogonalLoop=1;jettySize=auto;html=1;exitX=1;exitY=0.25;exitDx=0;exitDy=0;dashed=1;" edge="1" parent="tXNZW25RtUIMrDaAepfb-3" source="tXNZW25RtUIMrDaAepfb-77" target="tXNZW25RtUIMrDaAepfb-98">
          <mxGeometry relative="1" as="geometry" />
        </mxCell>
        <mxCell id="tXNZW25RtUIMrDaAepfb-193" style="edgeStyle=orthogonalEdgeStyle;rounded=0;orthogonalLoop=1;jettySize=auto;html=1;exitX=1;exitY=0.75;exitDx=0;exitDy=0;entryX=0.25;entryY=0;entryDx=0;entryDy=0;strokeWidth=0.3;dashed=1;" edge="1" parent="tXNZW25RtUIMrDaAepfb-3" source="tXNZW25RtUIMrDaAepfb-77" target="tXNZW25RtUIMrDaAepfb-152">
          <mxGeometry relative="1" as="geometry" />
        </mxCell>
        <mxCell id="tXNZW25RtUIMrDaAepfb-200" style="rounded=0;orthogonalLoop=1;jettySize=auto;html=1;entryX=0;entryY=0.75;entryDx=0;entryDy=0;strokeWidth=0.3;dashed=1;" edge="1" parent="tXNZW25RtUIMrDaAepfb-3" source="tXNZW25RtUIMrDaAepfb-77" target="tXNZW25RtUIMrDaAepfb-194">
          <mxGeometry relative="1" as="geometry" />
        </mxCell>
        <mxCell id="tXNZW25RtUIMrDaAepfb-204" style="edgeStyle=orthogonalEdgeStyle;rounded=0;orthogonalLoop=1;jettySize=auto;html=1;entryX=0.25;entryY=1;entryDx=0;entryDy=0;dashed=1;strokeWidth=0.3;" edge="1" parent="tXNZW25RtUIMrDaAepfb-3" source="tXNZW25RtUIMrDaAepfb-77" target="tXNZW25RtUIMrDaAepfb-201">
          <mxGeometry relative="1" as="geometry">
            <Array as="points">
              <mxPoint x="168" y="200" />
              <mxPoint x="328" y="200" />
            </Array>
          </mxGeometry>
        </mxCell>
        <mxCell id="tXNZW25RtUIMrDaAepfb-210" style="rounded=0;orthogonalLoop=1;jettySize=auto;html=1;entryX=0;entryY=0.25;entryDx=0;entryDy=0;dashed=1;strokeWidth=0.3;" edge="1" parent="tXNZW25RtUIMrDaAepfb-3" source="tXNZW25RtUIMrDaAepfb-77" target="tXNZW25RtUIMrDaAepfb-206">
          <mxGeometry relative="1" as="geometry" />
        </mxCell>
        <mxCell id="tXNZW25RtUIMrDaAepfb-211" style="rounded=0;orthogonalLoop=1;jettySize=auto;html=1;entryX=0;entryY=0.25;entryDx=0;entryDy=0;dashed=1;strokeWidth=0.3;" edge="1" parent="tXNZW25RtUIMrDaAepfb-3" source="tXNZW25RtUIMrDaAepfb-77" target="tXNZW25RtUIMrDaAepfb-207">
          <mxGeometry relative="1" as="geometry" />
        </mxCell>
        <mxCell id="tXNZW25RtUIMrDaAepfb-77" value="Api&lt;br&gt;GateWay" style="rounded=0;whiteSpace=wrap;html=1;" vertex="1" parent="tXNZW25RtUIMrDaAepfb-3">
          <mxGeometry x="138" y="60" width="60" height="110" as="geometry" />
        </mxCell>
        <mxCell id="tXNZW25RtUIMrDaAepfb-98" value="auth" style="rounded=1;whiteSpace=wrap;html=1;" vertex="1" parent="tXNZW25RtUIMrDaAepfb-3">
          <mxGeometry x="247.75" y="120" width="65" height="20" as="geometry" />
        </mxCell>
        <mxCell id="tXNZW25RtUIMrDaAepfb-101" value="權限管理" style="text;html=1;strokeColor=none;fillColor=none;align=center;verticalAlign=middle;whiteSpace=wrap;rounded=0;" vertex="1" parent="tXNZW25RtUIMrDaAepfb-3">
          <mxGeometry x="312.75" y="120" width="57.25" height="20" as="geometry" />
        </mxCell>
        <mxCell id="tXNZW25RtUIMrDaAepfb-139" style="edgeStyle=orthogonalEdgeStyle;rounded=0;orthogonalLoop=1;jettySize=auto;html=1;exitX=0;exitY=0.5;exitDx=0;exitDy=0;entryX=0.75;entryY=0;entryDx=0;entryDy=0;fillColor=#dae8fc;strokeColor=#6c8ebf;" edge="1" parent="tXNZW25RtUIMrDaAepfb-3" source="tXNZW25RtUIMrDaAepfb-104" target="tXNZW25RtUIMrDaAepfb-77">
          <mxGeometry relative="1" as="geometry">
            <Array as="points">
              <mxPoint x="400" y="60" />
            </Array>
          </mxGeometry>
        </mxCell>
        <mxCell id="tXNZW25RtUIMrDaAepfb-104" value="prometheus" style="rounded=1;whiteSpace=wrap;html=1;" vertex="1" parent="tXNZW25RtUIMrDaAepfb-3">
          <mxGeometry x="400" y="15" width="90" height="45" as="geometry" />
        </mxCell>
        <mxCell id="tXNZW25RtUIMrDaAepfb-108" value="Redis&lt;br&gt;Cluster" style="shape=cylinder3;whiteSpace=wrap;html=1;boundedLbl=1;backgroundOutline=1;size=15;" vertex="1" parent="tXNZW25RtUIMrDaAepfb-3">
          <mxGeometry x="380" y="380" width="60" height="80" as="geometry" />
        </mxCell>
        <mxCell id="tXNZW25RtUIMrDaAepfb-109" value="Redis&lt;br&gt;sentinel" style="shape=cylinder3;whiteSpace=wrap;html=1;boundedLbl=1;backgroundOutline=1;size=15;" vertex="1" parent="tXNZW25RtUIMrDaAepfb-3">
          <mxGeometry x="450" y="380" width="60" height="80" as="geometry" />
        </mxCell>
        <mxCell id="tXNZW25RtUIMrDaAepfb-59" value="畫k線" style="text;html=1;strokeColor=none;fillColor=none;align=center;verticalAlign=middle;whiteSpace=wrap;rounded=0;" vertex="1" parent="tXNZW25RtUIMrDaAepfb-3">
          <mxGeometry x="290" y="440" width="40" height="20" as="geometry" />
        </mxCell>
        <mxCell id="tXNZW25RtUIMrDaAepfb-148" value="web-client" style="rounded=1;whiteSpace=wrap;html=1;" vertex="1" parent="tXNZW25RtUIMrDaAepfb-3">
          <mxGeometry x="80" y="22.5" width="60" height="30" as="geometry" />
        </mxCell>
        <mxCell id="tXNZW25RtUIMrDaAepfb-150" value="web-admin" style="rounded=1;whiteSpace=wrap;html=1;" vertex="1" parent="tXNZW25RtUIMrDaAepfb-3">
          <mxGeometry y="27.5" width="70" height="25" as="geometry" />
        </mxCell>
        <mxCell id="tXNZW25RtUIMrDaAepfb-152" value="distribution" style="rounded=1;whiteSpace=wrap;html=1;" vertex="1" parent="tXNZW25RtUIMrDaAepfb-3">
          <mxGeometry x="210" y="150" width="70" height="30" as="geometry" />
        </mxCell>
        <mxCell id="tXNZW25RtUIMrDaAepfb-154" value="網頁前端" style="text;html=1;strokeColor=none;fillColor=none;align=center;verticalAlign=middle;whiteSpace=wrap;rounded=0;" vertex="1" parent="tXNZW25RtUIMrDaAepfb-3">
          <mxGeometry x="140" y="27.5" width="60" height="20" as="geometry" />
        </mxCell>
        <mxCell id="tXNZW25RtUIMrDaAepfb-155" value="分銷/代理" style="text;html=1;strokeColor=none;fillColor=none;align=center;verticalAlign=middle;whiteSpace=wrap;rounded=0;" vertex="1" parent="tXNZW25RtUIMrDaAepfb-3">
          <mxGeometry x="215" y="180" width="60" height="20" as="geometry" />
        </mxCell>
        <mxCell id="tXNZW25RtUIMrDaAepfb-194" value="live" style="rounded=1;whiteSpace=wrap;html=1;" vertex="1" parent="tXNZW25RtUIMrDaAepfb-3">
          <mxGeometry x="390" y="85" width="50" height="25" as="geometry" />
        </mxCell>
        <mxCell id="tXNZW25RtUIMrDaAepfb-198" value="管理直播" style="text;html=1;strokeColor=none;fillColor=none;align=center;verticalAlign=middle;whiteSpace=wrap;rounded=0;" vertex="1" parent="tXNZW25RtUIMrDaAepfb-3">
          <mxGeometry x="440" y="82.5" width="40" height="20" as="geometry" />
        </mxCell>
        <mxCell id="tXNZW25RtUIMrDaAepfb-201" value="media" style="rounded=1;whiteSpace=wrap;html=1;" vertex="1" parent="tXNZW25RtUIMrDaAepfb-3">
          <mxGeometry x="310" y="150" width="70" height="30" as="geometry" />
        </mxCell>
        <mxCell id="tXNZW25RtUIMrDaAepfb-203" value="圖片相關" style="text;html=1;strokeColor=none;fillColor=none;align=center;verticalAlign=middle;whiteSpace=wrap;rounded=0;" vertex="1" parent="tXNZW25RtUIMrDaAepfb-3">
          <mxGeometry x="380" y="155" width="50" height="20" as="geometry" />
        </mxCell>
        <mxCell id="tXNZW25RtUIMrDaAepfb-205" value="log" style="rounded=1;whiteSpace=wrap;html=1;" vertex="1" parent="tXNZW25RtUIMrDaAepfb-3">
          <mxGeometry x="500" y="125" width="50" height="30" as="geometry" />
        </mxCell>
        <mxCell id="tXNZW25RtUIMrDaAepfb-206" value="order" style="rounded=1;whiteSpace=wrap;html=1;" vertex="1" parent="tXNZW25RtUIMrDaAepfb-3">
          <mxGeometry x="360" y="270" width="80" height="40" as="geometry" />
        </mxCell>
        <mxCell id="tXNZW25RtUIMrDaAepfb-213" style="edgeStyle=orthogonalEdgeStyle;rounded=0;orthogonalLoop=1;jettySize=auto;html=1;entryX=0;entryY=0.5;entryDx=0;entryDy=0;dashed=1;strokeWidth=0.3;" edge="1" parent="tXNZW25RtUIMrDaAepfb-3" source="tXNZW25RtUIMrDaAepfb-207" target="tXNZW25RtUIMrDaAepfb-206">
          <mxGeometry relative="1" as="geometry">
            <Array as="points">
              <mxPoint x="340" y="340" />
              <mxPoint x="340" y="290" />
            </Array>
          </mxGeometry>
        </mxCell>
        <mxCell id="tXNZW25RtUIMrDaAepfb-207" value="risk" style="rounded=1;whiteSpace=wrap;html=1;" vertex="1" parent="tXNZW25RtUIMrDaAepfb-3">
          <mxGeometry x="360" y="320" width="80" height="40" as="geometry" />
        </mxCell>
        <mxCell id="tXNZW25RtUIMrDaAepfb-208" value="下單/刪單/搓單" style="text;html=1;strokeColor=none;fillColor=none;align=center;verticalAlign=middle;whiteSpace=wrap;rounded=0;" vertex="1" parent="tXNZW25RtUIMrDaAepfb-3">
          <mxGeometry x="450" y="280" width="60" height="20" as="geometry" />
        </mxCell>
        <mxCell id="tXNZW25RtUIMrDaAepfb-209" value="風控管裡/止盈止損" style="text;html=1;strokeColor=none;fillColor=none;align=center;verticalAlign=middle;whiteSpace=wrap;rounded=0;" vertex="1" parent="tXNZW25RtUIMrDaAepfb-3">
          <mxGeometry x="440" y="330" width="60" height="20" as="geometry" />
        </mxCell>
        <mxCell id="tXNZW25RtUIMrDaAepfb-216" style="edgeStyle=orthogonalEdgeStyle;rounded=0;orthogonalLoop=1;jettySize=auto;html=1;entryX=0.633;entryY=1.018;entryDx=0;entryDy=0;entryPerimeter=0;dashed=1;strokeWidth=0.3;" edge="1" parent="tXNZW25RtUIMrDaAepfb-3" source="tXNZW25RtUIMrDaAepfb-214" target="tXNZW25RtUIMrDaAepfb-77">
          <mxGeometry relative="1" as="geometry" />
        </mxCell>
        <mxCell id="tXNZW25RtUIMrDaAepfb-214" value="payment" style="rounded=1;whiteSpace=wrap;html=1;" vertex="1" parent="tXNZW25RtUIMrDaAepfb-3">
          <mxGeometry x="245" y="210" width="80" height="30" as="geometry" />
        </mxCell>
        <mxCell id="tXNZW25RtUIMrDaAepfb-217" value="出金入金" style="text;html=1;strokeColor=none;fillColor=none;align=center;verticalAlign=middle;whiteSpace=wrap;rounded=0;" vertex="1" parent="tXNZW25RtUIMrDaAepfb-3">
          <mxGeometry x="330" y="215" width="50" height="20" as="geometry" />
        </mxCell>
        <mxCell id="tXNZW25RtUIMrDaAepfb-219" value="promotion" style="rounded=1;whiteSpace=wrap;html=1;" vertex="1" parent="tXNZW25RtUIMrDaAepfb-3">
          <mxGeometry x="390" y="185" width="70" height="30" as="geometry" />
        </mxCell>
        <mxCell id="tXNZW25RtUIMrDaAepfb-221" value="" style="edgeStyle=orthogonalEdgeStyle;rounded=0;orthogonalLoop=1;jettySize=auto;html=1;dashed=1;strokeWidth=0.3;" edge="1" parent="tXNZW25RtUIMrDaAepfb-3" source="tXNZW25RtUIMrDaAepfb-220" target="tXNZW25RtUIMrDaAepfb-209">
          <mxGeometry relative="1" as="geometry" />
        </mxCell>
        <mxCell id="tXNZW25RtUIMrDaAepfb-220" value="活動管理/抽股票" style="text;html=1;strokeColor=none;fillColor=none;align=center;verticalAlign=middle;whiteSpace=wrap;rounded=0;" vertex="1" parent="tXNZW25RtUIMrDaAepfb-3">
          <mxGeometry x="460" y="195" width="60" height="20" as="geometry" />
        </mxCell>
        <mxCell id="tXNZW25RtUIMrDaAepfb-223" value="waller" style="rounded=1;whiteSpace=wrap;html=1;" vertex="1" parent="tXNZW25RtUIMrDaAepfb-3">
          <mxGeometry x="200" y="290" width="70" height="30" as="geometry" />
        </mxCell>
        <mxCell id="tXNZW25RtUIMrDaAepfb-224" value="錢包管理" style="text;html=1;strokeColor=none;fillColor=none;align=center;verticalAlign=middle;whiteSpace=wrap;rounded=0;" vertex="1" parent="tXNZW25RtUIMrDaAepfb-3">
          <mxGeometry x="272.75" y="295" width="57.25" height="20" as="geometry" />
        </mxCell>
        <mxCell id="tXNZW25RtUIMrDaAepfb-48" style="edgeStyle=orthogonalEdgeStyle;rounded=0;orthogonalLoop=1;jettySize=auto;html=1;exitX=1;exitY=0.3333333333333333;exitDx=0;exitDy=0;exitPerimeter=0;entryX=0;entryY=0.5;entryDx=0;entryDy=0;" edge="1" parent="1" source="tXNZW25RtUIMrDaAepfb-4" target="tXNZW25RtUIMrDaAepfb-6">
          <mxGeometry relative="1" as="geometry">
            <Array as="points">
              <mxPoint x="80" y="780" />
              <mxPoint x="170" y="780" />
              <mxPoint x="170" y="610" />
            </Array>
          </mxGeometry>
        </mxCell>
        <mxCell id="tXNZW25RtUIMrDaAepfb-49" value="報價" style="edgeLabel;html=1;align=center;verticalAlign=middle;resizable=0;points=[];" vertex="1" connectable="0" parent="tXNZW25RtUIMrDaAepfb-48">
          <mxGeometry x="-0.5561" y="1" relative="1" as="geometry">
            <mxPoint as="offset" />
          </mxGeometry>
        </mxCell>
        <mxCell id="tXNZW25RtUIMrDaAepfb-50" style="edgeStyle=orthogonalEdgeStyle;rounded=0;orthogonalLoop=1;jettySize=auto;html=1;exitX=1;exitY=0.3333333333333333;exitDx=0;exitDy=0;exitPerimeter=0;entryX=0;entryY=0.5;entryDx=0;entryDy=0;fillColor=#dae8fc;strokeColor=#6c8ebf;" edge="1" parent="1" source="tXNZW25RtUIMrDaAepfb-4" target="tXNZW25RtUIMrDaAepfb-5">
          <mxGeometry relative="1" as="geometry">
            <Array as="points">
              <mxPoint x="130" y="760" />
              <mxPoint x="130" y="500" />
            </Array>
          </mxGeometry>
        </mxCell>
        <mxCell id="tXNZW25RtUIMrDaAepfb-196" style="edgeStyle=orthogonalEdgeStyle;rounded=0;orthogonalLoop=1;jettySize=auto;html=1;exitX=0.5;exitY=0;exitDx=0;exitDy=0;exitPerimeter=0;entryX=0.5;entryY=1;entryDx=0;entryDy=0;entryPerimeter=0;strokeWidth=0.3;" edge="1" parent="1" source="tXNZW25RtUIMrDaAepfb-4" target="tXNZW25RtUIMrDaAepfb-195">
          <mxGeometry relative="1" as="geometry" />
        </mxCell>
        <mxCell id="tXNZW25RtUIMrDaAepfb-4" value="User" style="shape=umlActor;verticalLabelPosition=bottom;verticalAlign=top;html=1;outlineConnect=0;" vertex="1" parent="1">
          <mxGeometry x="50" y="740" width="30" height="60" as="geometry" />
        </mxCell>
        <mxCell id="tXNZW25RtUIMrDaAepfb-14" style="edgeStyle=orthogonalEdgeStyle;rounded=0;orthogonalLoop=1;jettySize=auto;html=1;exitX=0.5;exitY=1;exitDx=0;exitDy=0;entryX=0.4;entryY=0.1;entryDx=0;entryDy=0;entryPerimeter=0;" edge="1" parent="1" source="tXNZW25RtUIMrDaAepfb-9" target="tXNZW25RtUIMrDaAepfb-13">
          <mxGeometry relative="1" as="geometry" />
        </mxCell>
        <mxCell id="tXNZW25RtUIMrDaAepfb-9" value="Polygon Vm" style="rounded=0;whiteSpace=wrap;html=1;" vertex="1" parent="1">
          <mxGeometry x="160" y="860" width="120" height="60" as="geometry" />
        </mxCell>
        <mxCell id="tXNZW25RtUIMrDaAepfb-17" style="edgeStyle=orthogonalEdgeStyle;rounded=0;orthogonalLoop=1;jettySize=auto;html=1;exitX=0.5;exitY=1;exitDx=0;exitDy=0;entryX=0.489;entryY=0.09;entryDx=0;entryDy=0;entryPerimeter=0;" edge="1" parent="1" source="tXNZW25RtUIMrDaAepfb-10" target="tXNZW25RtUIMrDaAepfb-16">
          <mxGeometry relative="1" as="geometry" />
        </mxCell>
        <mxCell id="tXNZW25RtUIMrDaAepfb-10" value="Houbi vm" style="rounded=0;whiteSpace=wrap;html=1;" vertex="1" parent="1">
          <mxGeometry x="310" y="860" width="120" height="60" as="geometry" />
        </mxCell>
        <mxCell id="tXNZW25RtUIMrDaAepfb-18" style="edgeStyle=orthogonalEdgeStyle;rounded=0;orthogonalLoop=1;jettySize=auto;html=1;exitX=0.5;exitY=1;exitDx=0;exitDy=0;entryX=0.4;entryY=0.1;entryDx=0;entryDy=0;entryPerimeter=0;" edge="1" parent="1" source="tXNZW25RtUIMrDaAepfb-11" target="tXNZW25RtUIMrDaAepfb-15">
          <mxGeometry relative="1" as="geometry" />
        </mxCell>
        <mxCell id="tXNZW25RtUIMrDaAepfb-11" value="kaifu vm" style="rounded=0;whiteSpace=wrap;html=1;" vertex="1" parent="1">
          <mxGeometry x="460" y="860" width="120" height="60" as="geometry" />
        </mxCell>
        <mxCell id="tXNZW25RtUIMrDaAepfb-13" value="Polygon" style="ellipse;shape=cloud;whiteSpace=wrap;html=1;" vertex="1" parent="1">
          <mxGeometry x="160" y="1020" width="120" height="80" as="geometry" />
        </mxCell>
        <mxCell id="tXNZW25RtUIMrDaAepfb-15" value="KAIFU" style="ellipse;shape=cloud;whiteSpace=wrap;html=1;" vertex="1" parent="1">
          <mxGeometry x="480" y="1020" width="120" height="80" as="geometry" />
        </mxCell>
        <mxCell id="tXNZW25RtUIMrDaAepfb-16" value="Houbi" style="ellipse;shape=cloud;whiteSpace=wrap;html=1;" vertex="1" parent="1">
          <mxGeometry x="310" y="1020" width="120" height="80" as="geometry" />
        </mxCell>
        <mxCell id="tXNZW25RtUIMrDaAepfb-19" value="" style="endArrow=classic;html=1;" edge="1" parent="1">
          <mxGeometry width="50" height="50" relative="1" as="geometry">
            <mxPoint x="690" y="1020" as="sourcePoint" />
            <mxPoint x="780" y="1020" as="targetPoint" />
          </mxGeometry>
        </mxCell>
        <mxCell id="tXNZW25RtUIMrDaAepfb-20" value="" style="endArrow=classic;html=1;dashed=1;" edge="1" parent="1">
          <mxGeometry width="50" height="50" relative="1" as="geometry">
            <mxPoint x="690" y="1070" as="sourcePoint" />
            <mxPoint x="780" y="1070" as="targetPoint" />
          </mxGeometry>
        </mxCell>
        <mxCell id="tXNZW25RtUIMrDaAepfb-22" value="Websocket" style="text;html=1;strokeColor=none;fillColor=none;align=center;verticalAlign=middle;whiteSpace=wrap;rounded=0;" vertex="1" parent="1">
          <mxGeometry x="710" y="1030" width="40" height="20" as="geometry" />
        </mxCell>
        <mxCell id="tXNZW25RtUIMrDaAepfb-23" value="Grpc" style="text;html=1;strokeColor=none;fillColor=none;align=center;verticalAlign=middle;whiteSpace=wrap;rounded=0;" vertex="1" parent="1">
          <mxGeometry x="710" y="1080" width="40" height="20" as="geometry" />
        </mxCell>
        <mxCell id="tXNZW25RtUIMrDaAepfb-24" value="" style="endArrow=classic;html=1;fillColor=#dae8fc;strokeColor=#6c8ebf;" edge="1" parent="1">
          <mxGeometry width="50" height="50" relative="1" as="geometry">
            <mxPoint x="685" y="959.58" as="sourcePoint" />
            <mxPoint x="775" y="959.58" as="targetPoint" />
          </mxGeometry>
        </mxCell>
        <mxCell id="tXNZW25RtUIMrDaAepfb-25" value="RestApi" style="text;html=1;strokeColor=none;fillColor=none;align=center;verticalAlign=middle;whiteSpace=wrap;rounded=0;" vertex="1" parent="1">
          <mxGeometry x="710" y="980" width="40" height="20" as="geometry" />
        </mxCell>
        <mxCell id="tXNZW25RtUIMrDaAepfb-40" value="" style="endArrow=classic;html=1;fillColor=#f8cecc;strokeColor=#b85450;" edge="1" parent="1">
          <mxGeometry width="50" height="50" relative="1" as="geometry">
            <mxPoint x="690" y="1120" as="sourcePoint" />
            <mxPoint x="780" y="1120" as="targetPoint" />
          </mxGeometry>
        </mxCell>
        <mxCell id="tXNZW25RtUIMrDaAepfb-41" value="Tcp Socket" style="text;html=1;strokeColor=none;fillColor=none;align=center;verticalAlign=middle;whiteSpace=wrap;rounded=0;" vertex="1" parent="1">
          <mxGeometry x="710" y="1130" width="40" height="20" as="geometry" />
        </mxCell>
        <mxCell id="tXNZW25RtUIMrDaAepfb-42" style="edgeStyle=orthogonalEdgeStyle;rounded=0;orthogonalLoop=1;jettySize=auto;html=1;exitX=0.102;exitY=1.02;exitDx=0;exitDy=0;fillColor=#f8cecc;strokeColor=#b85450;exitPerimeter=0;" edge="1" parent="1" source="tXNZW25RtUIMrDaAepfb-26" target="tXNZW25RtUIMrDaAepfb-9">
          <mxGeometry relative="1" as="geometry" />
        </mxCell>
        <mxCell id="tXNZW25RtUIMrDaAepfb-44" style="edgeStyle=orthogonalEdgeStyle;rounded=0;orthogonalLoop=1;jettySize=auto;html=1;fillColor=#f8cecc;strokeColor=#b85450;exitX=0.844;exitY=0.997;exitDx=0;exitDy=0;exitPerimeter=0;" edge="1" parent="1" source="tXNZW25RtUIMrDaAepfb-26" target="tXNZW25RtUIMrDaAepfb-11">
          <mxGeometry relative="1" as="geometry">
            <mxPoint x="348" y="770" as="sourcePoint" />
            <Array as="points">
              <mxPoint x="401" y="830" />
              <mxPoint x="520" y="830" />
            </Array>
          </mxGeometry>
        </mxCell>
        <mxCell id="tXNZW25RtUIMrDaAepfb-45" style="edgeStyle=orthogonalEdgeStyle;rounded=0;orthogonalLoop=1;jettySize=auto;html=1;exitX=0.5;exitY=1;exitDx=0;exitDy=0;entryX=0.5;entryY=0;entryDx=0;entryDy=0;fillColor=#f8cecc;strokeColor=#b85450;" edge="1" parent="1" source="tXNZW25RtUIMrDaAepfb-26" target="tXNZW25RtUIMrDaAepfb-10">
          <mxGeometry relative="1" as="geometry" />
        </mxCell>
        <mxCell id="tXNZW25RtUIMrDaAepfb-55" value="毛毛蟲" style="edgeStyle=orthogonalEdgeStyle;rounded=0;orthogonalLoop=1;jettySize=auto;html=1;exitX=1;exitY=0.5;exitDx=0;exitDy=0;fillColor=#dae8fc;strokeColor=#6c8ebf;" edge="1" parent="1" source="tXNZW25RtUIMrDaAepfb-5">
          <mxGeometry relative="1" as="geometry">
            <mxPoint x="380" y="660" as="targetPoint" />
          </mxGeometry>
        </mxCell>
        <mxCell id="tXNZW25RtUIMrDaAepfb-72" value="拿k線" style="rounded=0;orthogonalLoop=1;jettySize=auto;html=1;fillColor=#dae8fc;strokeColor=#6c8ebf;" edge="1" parent="1">
          <mxGeometry relative="1" as="geometry">
            <mxPoint x="440" y="730" as="targetPoint" />
            <mxPoint x="320" y="520" as="sourcePoint" />
          </mxGeometry>
        </mxCell>
        <mxCell id="tXNZW25RtUIMrDaAepfb-106" style="edgeStyle=orthogonalEdgeStyle;rounded=0;orthogonalLoop=1;jettySize=auto;html=1;entryX=0.5;entryY=0;entryDx=0;entryDy=0;fillColor=#dae8fc;strokeColor=#6c8ebf;" edge="1" parent="1" source="tXNZW25RtUIMrDaAepfb-103" target="tXNZW25RtUIMrDaAepfb-104">
          <mxGeometry relative="1" as="geometry" />
        </mxCell>
        <mxCell id="tXNZW25RtUIMrDaAepfb-107" value="Get metrics" style="edgeLabel;html=1;align=center;verticalAlign=middle;resizable=0;points=[];" vertex="1" connectable="0" parent="tXNZW25RtUIMrDaAepfb-106">
          <mxGeometry x="0.2385" y="5" relative="1" as="geometry">
            <mxPoint as="offset" />
          </mxGeometry>
        </mxCell>
        <mxCell id="tXNZW25RtUIMrDaAepfb-103" value="Grafana" style="ellipse;shape=cloud;whiteSpace=wrap;html=1;" vertex="1" parent="1">
          <mxGeometry x="294" y="40" width="120" height="80" as="geometry" />
        </mxCell>
        <mxCell id="tXNZW25RtUIMrDaAepfb-141" value="CloudSql&lt;br&gt;app" style="shape=cylinder3;whiteSpace=wrap;html=1;boundedLbl=1;backgroundOutline=1;size=15;" vertex="1" parent="1">
          <mxGeometry x="590" y="830" width="60" height="80" as="geometry" />
        </mxCell>
        <mxCell id="tXNZW25RtUIMrDaAepfb-142" value="CloudSql&lt;br&gt;data" style="shape=cylinder3;whiteSpace=wrap;html=1;boundedLbl=1;backgroundOutline=1;size=15;" vertex="1" parent="1">
          <mxGeometry x="670" y="830" width="60" height="80" as="geometry" />
        </mxCell>
        <mxCell id="tXNZW25RtUIMrDaAepfb-143" style="edgeStyle=orthogonalEdgeStyle;rounded=0;orthogonalLoop=1;jettySize=auto;html=1;exitX=0.75;exitY=1;exitDx=0;exitDy=0;strokeWidth=0.3;" edge="1" parent="1" source="tXNZW25RtUIMrDaAepfb-58" target="tXNZW25RtUIMrDaAepfb-141">
          <mxGeometry relative="1" as="geometry" />
        </mxCell>
        <mxCell id="tXNZW25RtUIMrDaAepfb-153" value="管理後台" style="text;html=1;strokeColor=none;fillColor=none;align=center;verticalAlign=middle;whiteSpace=wrap;rounded=0;" vertex="1" parent="1">
          <mxGeometry x="140" y="350" width="60" height="20" as="geometry" />
        </mxCell>
        <mxCell id="tXNZW25RtUIMrDaAepfb-195" value="Agora" style="ellipse;shape=cloud;whiteSpace=wrap;html=1;" vertex="1" parent="1">
          <mxGeometry x="20" y="110" width="120" height="80" as="geometry" />
        </mxCell>
        <mxCell id="tXNZW25RtUIMrDaAepfb-202" value="google cloud&lt;br&gt;storage" style="ellipse;shape=cloud;whiteSpace=wrap;html=1;" vertex="1" parent="1">
          <mxGeometry x="110" y="200" width="120" height="80" as="geometry" />
        </mxCell>
        <mxCell id="tXNZW25RtUIMrDaAepfb-222" style="rounded=0;orthogonalLoop=1;jettySize=auto;html=1;dashed=1;strokeWidth=0.3;" edge="1" parent="1" source="tXNZW25RtUIMrDaAepfb-219">
          <mxGeometry relative="1" as="geometry">
            <mxPoint x="380" y="500" as="targetPoint" />
          </mxGeometry>
        </mxCell>
      </root>
    </mxGraphModel>
  </diagram>
</mxfile>
